<?xml version="1.0" encoding="utf-8"?>
<!-- Generator: Adobe Illustrator 25.0.0, SVG Export Plug-In . SVG Version: 6.00 Build 0)  -->
<svg version="1.1" id="Calque_1" xmlns="http://www.w3.org/2000/svg" xmlns:xlink="http://www.w3.org/1999/xlink" x="0px" y="0px"
	 viewBox="0 0 583.9 215.4" style="enable-background:new 0 0 583.9 215.4;" xml:space="preserve">
<style type="text/css">
	.st0{fill:#FFFFFF;}
	.st1{font-family:'Arial-BoldMT';}
	.st2{font-size:8.1417px;}
</style>
<g id="solid">
</g>
<g>
	<polygon class="st0" points="224.4,117.5 224.4,114.7 224.4,109.2 238.8,109.2 238.8,102.2 224.4,102.2 224.4,95.4 239.8,95.4 
		239.8,88.4 215.4,88.4 215.4,124.6 224.4,124.6 	"/>
	<rect x="360.4" y="95.2" class="st0" width="10.1" height="10.1"/>
	<path class="st0" d="M385.6,91.5c-2.4-2.1-5.8-3.1-10.3-3.1h-15v6.8h14c1.8,0,3.1,0.4,4.1,1.3s1.4,2.1,1.4,3.7s-0.5,2.9-1.4,3.8
		c-1,0.9-2.3,1.3-4.1,1.3h-14v19.3h9.6v-12.5h5.4c4.5,0,7.9-1,10.3-3.1s3.6-5,3.6-8.8C389.2,96.5,388,93.6,385.6,91.5z"/>
	<path id="path6814-3_12_" class="st0" d="M441.6,87.9c-11.5,0-20.8,6.8-20.8,18.7s9.3,18.7,20.8,18.7c6.5,0,12.3-2.7,16.1-6.9
		l-5.9-5.6c-2.2,3-6,4.9-10.3,4.9c-6.8,0-12.4-4.1-12.4-11.1s5.5-11.1,12.4-11.1c4.2,0,7.9,1.9,10.1,4.8l6.2-5.2
		C454.2,90.7,448.2,87.9,441.6,87.9L441.6,87.9z"/>
	<path id="path6818-0_2_" class="st0" d="M411.4,118.1h-14.1l-2.2,6.6H386l13-36.2h10.8l13,36.2h-9.1L411.4,118.1L411.4,118.1z
		 M399.5,111.4h9.6L404.4,97L399.5,111.4L399.5,111.4z"/>
	<path id="path6820-6_12_" class="st0" d="M461.5,88.5h9v13.2l13-13.2H494l-16.9,17.1l18.6,19h-11.3l-13.9-14.2v14.2h-9L461.5,88.5
		L461.5,88.5z"/>
	<path id="path6822-1_2_" class="st0" d="M508.4,87.8c-3.3,0.3-6,1.4-8.1,3.4s-3,4.3-2.7,6.9c0.2,1.8,1,3.5,2.6,5.2
		c1.5,1.7,4.8,4,9.8,7c0.2,0.1,0.5,0.3,0.7,0.4c0.4,0.3,0.8,0.6,1.1,0.8c0.3,0.2,0.6,0.5,0.8,0.7c0.8,0.8,1.2,1.6,1.3,2.5
		s-0.3,1.8-1.2,2.6c-0.9,0.8-2,1.2-3.4,1.3c-2.7,0.2-5.2-1.3-7.6-4.4l-6.5,4.1c1.9,2.7,4,4.6,6.4,5.7s5.1,1.6,8.2,1.3
		c3.9-0.3,7-1.5,9.2-3.7s3.2-4.8,2.9-7.9c-0.2-1.6-0.7-3-1.5-4.3s-2.1-2.6-3.9-3.9c-0.7-0.5-2.7-1.8-6.1-3.9
		c-0.5-0.3-1.2-0.8-1.7-1.1c-0.5-0.4-1-0.7-1.3-0.9c-0.4-0.3-0.6-0.5-0.8-0.7c-0.5-0.5-0.8-1.1-0.9-1.7s0.2-1.2,0.8-1.7
		c0.6-0.6,1.5-0.9,2.5-1c2.2-0.2,4.5,1,6.8,3.4l5.5-5.1c-2.5-2.1-4.7-3.5-6.7-4.2C512.6,87.9,510.5,87.6,508.4,87.8L508.4,87.8z"/>
	<path id="path6799-4_2_" class="st0" d="M155,88.4h9v29.1h15.8v7H155V88.4z"/>
	<path id="path6801-6_2_" class="st0" d="M185,88.4h24.3v7H194v6.7h14.4v7H194v8.3h15.8v7H185V88.4z"/>
	<path id="path6806-0_12_" class="st0" d="M331.8,95.5v22.1h3.2c3.7,0,6.5-0.9,8.4-2.8s2.9-4.6,2.9-8.2s-1-6.3-2.9-8.2
		c-1.9-1.9-4.7-2.8-8.4-2.8L331.8,95.5L331.8,95.5z M322.8,88.4h9.5c5.3,0,9.3,0.4,11.8,1.2c2.6,0.8,4.8,2.1,6.7,4
		c1.6,1.6,2.9,3.5,3.7,5.6c0.8,2.1,1.2,4.5,1.2,7.2s-0.4,5.2-1.2,7.3c-0.8,2.1-2,4-3.7,5.6c-1.9,1.9-4.1,3.2-6.7,4
		s-6.6,1.2-11.8,1.2h-9.5V88.4z"/>
	<path id="path6808-4_12_" class="st0" d="M292.1,88.4h24.3v7h-15.3v6.7h14.4v7h-14.4v8.3H317v7h-24.9V88.4z"/>
	<path class="st0" d="M124.6,126.8l16.9-1.8l-2.2-40.2l-16.9-0.7c-0.1-0.1-0.1-0.2-0.2-0.2l-1.1-21.2l-42.4-5.3L80,81.8
		c-0.1,0.1-0.2,0.2-0.3,0.3l-26.1-1.3l2.8,53.4l25.8-2.8c0.1,0.1,0.2,0.2,0.3,0.2l1.3,24.4l41.7-7.7l-1.1-21.2
		C124.5,127,124.5,126.9,124.6,126.8z M84,129.4l-2.4-46l39.5,1.7l2.2,40.4L84,129.4z"/>
	<text transform="matrix(0.985 0 0 1 524.2979 125.5187)" class="st0 st1 st2">®</text>
	<g>
		<path class="st0" d="M244.5,88.4h14.7l5.7,22l5.6-22h14.7v36.2H276V97l-7.1,27.6h-8.3l-7-27.6v27.6h-9.2L244.5,88.4L244.5,88.4z"
			/>
	</g>
</g>
</svg>
