<?xml version="1.0" encoding="utf-8"?>
<!-- Generator: Adobe Illustrator 16.0.3, SVG Export Plug-In . SVG Version: 6.00 Build 0)  -->
<!DOCTYPE svg PUBLIC "-//W3C//DTD SVG 1.1//EN" "http://www.w3.org/Graphics/SVG/1.1/DTD/svg11.dtd">
<svg version="1.1" id="Layer_1" xmlns="http://www.w3.org/2000/svg" xmlns:xlink="http://www.w3.org/1999/xlink" x="0px" y="0px"
	 width="134px" height="133px" viewBox="0 0 134 133" enable-background="new 0 0 134 133" xml:space="preserve">
<g>
	
		<rect x="8.082" y="9.167" fill="none" stroke="#FFFFFF" stroke-width="2" stroke-miterlimit="10" width="117.835" height="117.833"/>
	<path fill="#FFFFFF" d="M91.468,79.232l2.558-2.555c1.412-1.398,1.412-3.684,0-5.096l-1.007-1.006l0.021-0.021L74.561,52.067
		l0.008-0.007l-4.986-4.985c-1.407-1.41-3.688-1.41-5.096,0l-4.689,4.689l0,0l-2.685,2.686l-1.107,1.107l0,0l-11.83,11.834
		l-0.005-0.005l-4.196,4.195c-1.412,1.412-1.412,3.698,0,5.096l2.558,2.555c1.41,1.413,3.696,1.413,5.09,0l1.294-1.293v0.001
		L67.027,59.82l15.184,15.189l-0.029,0.028l4.196,4.195C87.771,80.645,90.058,80.645,91.468,79.232z"/>
</g>
</svg>
